<svg width="605" height="406" viewBox="0 0 605 406" fill="none" xmlns="http://www.w3.org/2000/svg">
<path d="M337.688 286.698C320.847 318.366 332.871 357.688 364.542 374.526C396.214 391.364 435.541 379.342 452.381 347.674L574.348 118.316C591.188 86.6478 579.165 47.326 547.493 30.488C515.821 13.6499 476.495 25.6718 459.655 57.3396L337.688 286.698Z" fill="#FF2946"/>
<path d="M110.364 286.698C93.5243 318.366 105.548 357.688 137.219 374.526C168.891 391.364 208.218 379.342 225.058 347.674L347.025 118.316C363.865 86.6478 351.842 47.326 320.17 30.488C288.498 13.6499 249.172 25.6718 232.332 57.3396L110.364 286.698Z" fill="#FF8341"/>
<path d="M1.52588e-05 84.8008C1.52588e-05 120.667 29.0787 149.742 64.9492 149.742C100.82 149.742 129.898 120.667 129.898 84.8008C129.898 48.9347 100.82 19.8596 64.9492 19.8596C29.0787 19.8596 1.52588e-05 48.9347 1.52588e-05 84.8008Z" fill="#FFAF61"/>
</svg>
